<svg xmlns="http://www.w3.org/2000/svg" xmlns:xlink="http://www.w3.org/1999/xlink" xmlns:inkscape="http://www.inkscape.org/namespaces/inkscape" version="1.1" width="841.8898" height="595.2756" viewBox="0 0 841.8898 595.2756">
<path transform="matrix(1,0,0,-1,0,595.2756)" d="M0 0H841.8898V595.2756H0Z" fill="#fffefb" fill-rule="evenodd"/>
<text fill="#606963" xml:space="preserve" transform="matrix(1 0 -0 1 47 37.21997)" font-size="8.5" font-family="Arial" font-weight="bold"><tspan y="-2.72" x="0 6.1370007 8.500001 13.6935009 19.363 21.726002 28.339003 34.476 36.839 42.976">CITY GUIDE</tspan></text>
<text fill="#606963" xml:space="preserve" transform="matrix(1 0 -0 1 192 37.21997)" font-size="8.5" font-family="Arial"><tspan y="-2.72" x="543.3732 548.09927 552.82528 555.18826 558.01876 560.3817 565.5752 571.7122 577.3817 579.7447 587.7687 593.4382 598.1642">55 &#x00b7; THE WELL</tspan></text>
<path transform="matrix(1,0,0,-1,0,595.2756)" stroke-width=".9" stroke-linecap="butt" stroke-miterlimit="10" stroke-linejoin="miter" fill="none" stroke="#78867a" d="M47 548.2756H794.8898"/>
<text fill="#202321" xml:space="preserve" transform="matrix(1 0 -0 1 47 94.359989)" font-size="23" font-family="Arial" font-weight="bold"><tspan y="-7.36" x="0 15.3410019 28.129002 42.182004 56.235006 69.023 81.811008 88.205 106.099 112.493 120.15199 134.20499 148.25798 162.31098 169.96997 176.36397 190.41696 203.20496 223.65196 236.43996 250.49295 256.88697 274.78099 281.175 293.96299 308.016 320.804 329.75099">Echoes without named wishers</tspan></text>
<text fill="#606963" xml:space="preserve" transform="matrix(1 0 -0 1 47 116.879978)" font-size="11" font-family="Arial"><tspan y="-3.52" x="0 7.942001 14.0580019 17.721 21.384 27.500002 33.616 36.674 39.732 45.232 48.289999 54.406 58.069 60.511 66.627 72.127 75.185 80.685 86.800998 92.91699 99.03299 101.47499 106.97499 110.03299 113.69599 119.81199 125.31199 131.428 137.54399 143.65999 146.10199 151.60199 157.71799 163.83399 166.27599 172.39199 175.44998 181.56598 187.68198 191.34497 197.46097 202.96097 209.07697 214.57697 217.63497 220.69297 226.80896 232.92496 235.98296 239.04096 244.54096 250.65695 254.31995 257.37797 259.81996 262.87797 265.31996 271.43595 277.55195 280.60997 286.10997 292.22596 298.34196 304.45796 309.95796 316.07395 319.73695 325.23695">Current stories supply recognizable phrases, not certified speakers.</tspan></text>
<text fill="#606963" xml:space="preserve" transform="matrix(1 0 -0 1 749.8898 570.1556)" font-size="9" font-family="Arial"><tspan y="-2.88" x="29.98389 34.987894 39.991895">177</tspan></text>
<text fill="#606963" xml:space="preserve" transform="matrix(1 0 -0 1 47 569.49557)" font-size="8.5" font-family="Arial"><tspan y="-2.72" x="0 5.6695005 8.0325 13.702001 16.065 21.258502 23.621502 29.758503 36.371503 38.7345 44.871503 51.4845 57.621503 63.758504 69.428 71.791 74.6215 76.9845 83.1215 85.4845 90.67799 96.347499 98.710498 105.323497 111.460498 113.823497 119.960498 125.63 127.993 130.8235 133.18651 138.856 144.5255 150.19499 155.38849 161.05799 168.13849 173.80799 179.47748 185.61447 187.97748 192.70348 197.42948 202.15547">VISITING HOURS &#x00b7; CITY GUIDE &#x00b7; SEPTEMBER 2026</tspan></text>
<path transform="matrix(1,0,0,-1,0,595.2756)" stroke-width=".9" stroke-linecap="butt" stroke-dasharray="3,3" stroke-miterlimit="10" stroke-linejoin="miter" fill="none" stroke="#78867a" d="M248.9302 301.6378H266.9302"/>
<path transform="matrix(1,0,0,-1,0,595.2756)" stroke-width=".9" stroke-linecap="butt" stroke-dasharray="3,3" stroke-miterlimit="10" stroke-linejoin="miter" fill="none" stroke="#78867a" d="M266.9302 301.6378V378.2067"/>
<path transform="matrix(1,0,0,-1,0,595.2756)" stroke-width=".9" stroke-linecap="butt" stroke-dasharray="3,3" stroke-miterlimit="10" stroke-linejoin="miter" fill="none" stroke="#78867a" d="M266.9302 378.2067H296.7614"/>
<path transform="matrix(1,0,0,-1,0,595.2756)" stroke-width="1.05" stroke-linecap="butt" stroke-dasharray="3,3" stroke-miterlimit="10" stroke-linejoin="miter" fill="none" stroke="#78867a" d="M296.7614 378.2067H305.7614"/>
<path transform="matrix(1,0,0,-1,0,595.2756)" stroke-width="1" stroke-linecap="butt" stroke-miterlimit="10" stroke-linejoin="miter" fill="none" stroke="#78867a" d="M305.7614 378.2067 301.3735 380.6038"/>
<path transform="matrix(1,0,0,-1,0,595.2756)" stroke-width="1" stroke-linecap="butt" stroke-miterlimit="10" stroke-linejoin="miter" fill="none" stroke="#78867a" d="M305.7614 378.2067 301.3735 375.8096"/>
<path transform="matrix(1,0,0,-1,0,595.2756)" stroke-width=".9" stroke-linecap="butt" stroke-dasharray="3,3" stroke-miterlimit="10" stroke-linejoin="miter" fill="none" stroke="#78867a" d="M248.9302 301.6378H266.9302"/>
<path transform="matrix(1,0,0,-1,0,595.2756)" stroke-width=".9" stroke-linecap="butt" stroke-dasharray="3,3" stroke-miterlimit="10" stroke-linejoin="miter" fill="none" stroke="#78867a" d="M266.9302 301.6378V454.2756"/>
<path transform="matrix(1,0,0,-1,0,595.2756)" stroke-width=".9" stroke-linecap="butt" stroke-dasharray="3,3" stroke-miterlimit="10" stroke-linejoin="miter" fill="none" stroke="#78867a" d="M266.9302 454.2756H549.3256"/>
<path transform="matrix(1,0,0,-1,0,595.2756)" stroke-width=".9" stroke-linecap="butt" stroke-dasharray="3,3" stroke-miterlimit="10" stroke-linejoin="miter" fill="none" stroke="#78867a" d="M549.3256 454.2756V378.2067"/>
<path transform="matrix(1,0,0,-1,0,595.2756)" stroke-width="1.05" stroke-linecap="butt" stroke-dasharray="3,3" stroke-miterlimit="10" stroke-linejoin="miter" fill="none" stroke="#78867a" d="M549.3256 378.2067H558.3256"/>
<path transform="matrix(1,0,0,-1,0,595.2756)" stroke-width="1" stroke-linecap="butt" stroke-miterlimit="10" stroke-linejoin="miter" fill="none" stroke="#78867a" d="M558.3256 378.2067 553.9377 380.6038"/>
<path transform="matrix(1,0,0,-1,0,595.2756)" stroke-width="1" stroke-linecap="butt" stroke-miterlimit="10" stroke-linejoin="miter" fill="none" stroke="#78867a" d="M558.3256 378.2067 553.9377 375.8096"/>
<path transform="matrix(1,0,0,-1,0,595.2756)" stroke-width=".9" stroke-linecap="butt" stroke-dasharray="3,3" stroke-miterlimit="10" stroke-linejoin="miter" fill="none" stroke="#78867a" d="M248.9302 301.6378H266.9302"/>
<path transform="matrix(1,0,0,-1,0,595.2756)" stroke-width=".9" stroke-linecap="butt" stroke-dasharray="3,3" stroke-miterlimit="10" stroke-linejoin="miter" fill="none" stroke="#78867a" d="M266.9302 301.6378V225.0689"/>
<path transform="matrix(1,0,0,-1,0,595.2756)" stroke-width=".9" stroke-linecap="butt" stroke-dasharray="3,3" stroke-miterlimit="10" stroke-linejoin="miter" fill="none" stroke="#78867a" d="M266.9302 225.0689H296.7614"/>
<path transform="matrix(1,0,0,-1,0,595.2756)" stroke-width="1.05" stroke-linecap="butt" stroke-dasharray="3,3" stroke-miterlimit="10" stroke-linejoin="miter" fill="none" stroke="#78867a" d="M296.7614 225.0689H305.7614"/>
<path transform="matrix(1,0,0,-1,0,595.2756)" stroke-width="1" stroke-linecap="butt" stroke-miterlimit="10" stroke-linejoin="miter" fill="none" stroke="#78867a" d="M305.7614 225.0689 301.3735 227.466"/>
<path transform="matrix(1,0,0,-1,0,595.2756)" stroke-width="1" stroke-linecap="butt" stroke-miterlimit="10" stroke-linejoin="miter" fill="none" stroke="#78867a" d="M305.7614 225.0689 301.3735 222.6718"/>
<path transform="matrix(1,0,0,-1,0,595.2756)" stroke-width=".9" stroke-linecap="butt" stroke-dasharray="3,3" stroke-miterlimit="10" stroke-linejoin="miter" fill="none" stroke="#78867a" d="M248.9302 301.6378H266.9302"/>
<path transform="matrix(1,0,0,-1,0,595.2756)" stroke-width=".9" stroke-linecap="butt" stroke-dasharray="3,3" stroke-miterlimit="10" stroke-linejoin="miter" fill="none" stroke="#78867a" d="M266.9302 301.6378V454.2756"/>
<path transform="matrix(1,0,0,-1,0,595.2756)" stroke-width=".9" stroke-linecap="butt" stroke-dasharray="3,3" stroke-miterlimit="10" stroke-linejoin="miter" fill="none" stroke="#78867a" d="M266.9302 454.2756H549.3256"/>
<path transform="matrix(1,0,0,-1,0,595.2756)" stroke-width=".9" stroke-linecap="butt" stroke-dasharray="3,3" stroke-miterlimit="10" stroke-linejoin="miter" fill="none" stroke="#78867a" d="M549.3256 454.2756V225.0689"/>
<path transform="matrix(1,0,0,-1,0,595.2756)" stroke-width="1.05" stroke-linecap="butt" stroke-dasharray="3,3" stroke-miterlimit="10" stroke-linejoin="miter" fill="none" stroke="#78867a" d="M549.3256 225.0689H558.3256"/>
<path transform="matrix(1,0,0,-1,0,595.2756)" stroke-width="1" stroke-linecap="butt" stroke-miterlimit="10" stroke-linejoin="miter" fill="none" stroke="#78867a" d="M558.3256 225.0689 553.9377 227.466"/>
<path transform="matrix(1,0,0,-1,0,595.2756)" stroke-width="1" stroke-linecap="butt" stroke-miterlimit="10" stroke-linejoin="miter" fill="none" stroke="#78867a" d="M558.3256 225.0689 553.9377 222.6718"/>
<path transform="matrix(1,0,0,-1,0,595.2756)" d="M47 229.8189H248.9302V373.4567H47Z" fill="#efe6df" fill-rule="evenodd"/>
<path transform="matrix(1,0,0,-1,0,595.2756)" stroke-width="1.3" stroke-linecap="butt" stroke-miterlimit="10" stroke-linejoin="miter" fill="none" stroke="#8c352f" d="M47 373.4567H248.9302"/>
<text fill="#202321" xml:space="preserve" transform="matrix(1 0 -0 1 59 248.99887)" font-size="11.5" font-family="Arial" font-weight="bold"><tspan y="-3.68" x="0 8.303 11.500001 15.329501 18.5265 26.829503 33.856004 40.250005 44.079504 47.909 52.3825 55.5795 62.606 69.6325 73.462 79.855998 86.88249 90.07949 99.02649 102.22349 108.617488 115.64398 122.03798">A &#x00b7; Unattributed wishes</tspan></text>
<text fill="#202321" xml:space="preserve" transform="matrix(1 0 -0 1 59 284.51087)" font-size="10.8" font-family="Arial"><tspan y="-17.712" x="0 6.5988 12.603601 18.608403 21.610802 31.806004 37.810808 40.208406 42.606004 45.608404 51.613206 57.618005 60.620405 66.625209 72.630008 76.2264 81.6264 84.62881 90.633609 96.638408 102.03841 104.436008 108.0324 114.0372 119.4372 122.439609 130.23722 132.63481 135.6372 141.64202 147.64682 153.65163">The Well gathers desires without</tspan><tspan y="-3.4560004" x="0 6.004801 11.4048 16.8048 19.2024 25.207201 31.212002 33.609605 39.614404 45.6192 48.6216 54.626405 60.631204 69.6276 75.6324 81.0324">assigning names.</tspan></text>
<path transform="matrix(1,0,0,-1,0,595.2756)" d="M308.7614 311.1378H542.3256V445.27558H308.7614Z" fill="#f2f4ef" fill-rule="evenodd"/>
<path transform="matrix(1,0,0,-1,0,595.2756)" stroke-width="1.3" stroke-linecap="butt" stroke-miterlimit="10" stroke-linejoin="miter" fill="none" stroke="#202321" d="M308.7614 445.2756H542.3256"/>
<text fill="#202321" xml:space="preserve" transform="matrix(1 0 -0 1 320.7614 177.17996)" font-size="11.5" font-family="Arial" font-weight="bold"><tspan y="-3.68" x="0 8.303 11.500001 15.329501 18.5265 24.920502 31.314503 34.5115 38.341 41.538 48.5645 55.591 62.6175 67.091 70.288 79.8675 83.0645 90.090999 97.11749 100.94699 107.34099">B &#x00b7; 43 - Four Minutes</tspan></text>
<text fill="#202321" xml:space="preserve" transform="matrix(1 0 -0 1 320.7614 198.43598)" font-size="10.8" font-family="Arial"><tspan y="-3.456" x="0 7.203601 13.208402 16.210803 22.215603 28.220404 31.816803 34.2144 36.612 42.6168 46.2132 49.2156 55.220399 60.6204 66.6252 72.63 75.027599 81.032398 87.03719 90.0396 95.4396 98.442 100.8396 103.2372 105.634799 108.6372 114.0372 120.042 126.0468 129.0492 135.054 137.4516 143.4564 145.854 151.85881 157.86362 160.86602 163.86841 169.87322 175.87802 178.88042 184.88523 190.89003 196.89484 199.89723">An earlier evening still containing the boat.</tspan></text>
<path transform="matrix(1,0,0,-1,0,595.2756)" d="M561.3256 311.1378H794.88986V445.27558H561.3256Z" fill="#f2f4ef" fill-rule="evenodd"/>
<path transform="matrix(1,0,0,-1,0,595.2756)" stroke-width="1.3" stroke-linecap="butt" stroke-miterlimit="10" stroke-linejoin="miter" fill="none" stroke="#202321" d="M561.3256 445.2756H794.8898"/>
<text fill="#202321" xml:space="preserve" transform="matrix(1 0 -0 1 573.3256 177.17996)" font-size="11.5" font-family="Arial" font-weight="bold"><tspan y="-3.68" x="0 8.303 11.500001 15.329501 18.5265 24.920502 31.314503 34.5115 38.341 41.538 48.5645 55.591 61.985 65.182 72.8525 76.682 83.076 90.10249 97.12899 103.52299 107.99649 115.02299 118.219989 125.89049 132.91699 141.864">C &#x00b7; 49 - The Standard Vows</tspan></text>
<text fill="#202321" xml:space="preserve" transform="matrix(1 0 -0 1 573.3256 198.43598)" font-size="10.8" font-family="Arial"><tspan y="-3.456" x="0 7.203601 13.208402 16.210803 22.215603 25.812003 31.816803 37.8216 43.221605 45.284406 50.684408 53.686807 59.691606 65.091609 68.09401 74.09881 80.10361 86.108409 92.113208 98.118007 101.12041 104.12281 110.12761 113.72401 122.720409">Saturday's extended form.</tspan></text>
<path transform="matrix(1,0,0,-1,0,595.2756)" d="M308.7614 158H542.3256V292.13783H308.7614Z" fill="#f2f4ef" fill-rule="evenodd"/>
<path transform="matrix(1,0,0,-1,0,595.2756)" stroke-width="1.3" stroke-linecap="butt" stroke-miterlimit="10" stroke-linejoin="miter" fill="none" stroke="#202321" d="M308.7614 292.1378H542.3256"/>
<text fill="#202321" xml:space="preserve" transform="matrix(1 0 -0 1 320.7614 330.31779)" font-size="11.5" font-family="Arial" font-weight="bold"><tspan y="-3.68" x="0 8.303 11.500001 15.329501 18.5265 24.920502 31.314503 34.5115 38.341 41.538 48.5645 55.591 61.985 65.182 72.208499 78.60249 84.99649 88.82599 92.02299 102.87899 109.90549 114.37899">D &#x00b7; 54 - The Last Word</tspan></text>
<text fill="#202321" xml:space="preserve" transform="matrix(1 0 -0 1 320.7614 351.5738)" font-size="10.8" font-family="Arial"><tspan y="-3.456" x="0 7.203601 10.206001 16.210803 19.807202 25.812003 31.816803 34.819204 40.824007 43.826406 49.831209 55.836008 58.838407 66.63601 72.64081 78.64561 84.650409 87.65281 90.65521 96.66001 102.66481 105.66721 111.67201 117.072017 122.472019 128.47682 134.48163 137.48403 143.48883 149.49364 152.49604 160.29364 166.29845 169.89485 175.89966 181.29965">A breath between the accepted words.</tspan></text>
<path transform="matrix(1,0,0,-1,0,595.2756)" d="M561.3256 158H794.88986V292.13783H561.3256Z" fill="#f2f4ef" fill-rule="evenodd"/>
<path transform="matrix(1,0,0,-1,0,595.2756)" stroke-width="1.3" stroke-linecap="butt" stroke-miterlimit="10" stroke-linejoin="miter" fill="none" stroke="#202321" d="M561.3256 292.1378H794.8898"/>
<text fill="#202321" xml:space="preserve" transform="matrix(1 0 -0 1 573.3256 330.31779)" font-size="11.5" font-family="Arial" font-weight="bold"><tspan y="-3.68" x="0 7.6705009 10.867501 14.697001 17.894001 24.288002 30.682003 33.879 37.7085 40.9055 48.576 54.97 59.4435 65.8375 69.0345 75.4285 81.822498 85.01949 88.21649 98.439998 105.46649 109.939998 116.96649 123.36049 129.75449 139.97798 146.37198 153.39849">E &#x00b7; 53 - Service Improvement</tspan></text>
<text fill="#202321" xml:space="preserve" transform="matrix(1 0 -0 1 573.3256 351.5738)" font-size="10.8" font-family="Arial"><tspan y="-3.456" x="0 6.5988 12.603601 18.608403 21.610802 27.615603 33.620405 39.625207 43.221609 46.224008 54.021608 56.419206 59.421606 65.42641 68.42881 74.43361 80.43841 86.44321 92.448009 95.45041 101.45521 107.46001 113.464809 117.0612 122.461208 125.46361 131.46842 134.47081 137.4732 140.4756 146.48041 150.07682 156.08162 162.08643">The hour with open doors at three.</tspan></text>
<text fill="#606963" xml:space="preserve" transform="matrix(1 0 -0 1 47 461.55158)" font-size="9.3" font-family="Arial"><tspan y="-2.976" x="0 6.2031009 8.788501 14.219702 16.805102 23.008202 25.593602 28.179 33.3498 37.9998 43.1706 48.3414 50.9268 56.0976 58.683 61.2684 63.853799 69.0246 74.1954 76.7808 79.3662 81.4308 83.4954 91.2423 93.827709 96.41311 98.99851 105.201618 107.78702 113.218219 115.80362 122.51822 125.10362 127.689029 132.85984 137.50983 142.68064 147.85144 150.43685 155.60765 158.19306 160.77846 163.36386 168.53467 173.70548 176.29088 180.94087 186.11168 189.20858 194.37938 202.12628 207.29709 212.4679 217.11789 219.7033 222.2887 224.8741 231.0772 233.6626 239.0938 241.6792 248.3938 250.9792 253.5646 258.7354 263.3854 268.5562 273.72703 276.3124 281.48323 284.0686 286.654 289.23939 294.4102 299.581 302.16639 305.26329 310.43409 315.08409 320.25489 323.35179 328.52259 330.5872 335.758 340.9288 343.5142 346.09959 348.68498 354.88807 357.47346 362.90467 365.49006 371.69316 374.27854 376.86393 382.03474 386.68473 391.85554 397.02635 399.61174 404.78254 407.36793 409.9533 412.5387 417.7095 422.8803 425.4657 430.6365 435.8073 440.97813">A &#x003e; B: echo of the film / A &#x003e; C: echo of the ceremony / A &#x003e; D: echo of the recording / A &#x003e; E: echo of the hour</tspan></text>
<path transform="matrix(1,0,0,-1,0,595.2756)" stroke-width=".65" stroke-linecap="butt" stroke-miterlimit="10" stroke-linejoin="miter" fill="none" stroke="#202321" d="M47 102H794.8898"/>
<text fill="#202321" xml:space="preserve" transform="matrix(1 0 -0 1 47 518.13558)" font-size="10.5" font-family="Arial" font-style="italic"><tspan y="-3.36" x="0 7.0035006 12.841501 18.679503 22.176003 28.014004 33.852006 36.771005 42.609006 48.447008 51.366006 57.204008 59.535009 61.86601 67.11601 70.03501 72.36601 78.20401 83.45401 85.78501 88.70401 94.54201 97.461009 100.957508 106.7955 112.0455 117.8835 123.7215 129.5595 131.89049 134.8095 137.14049 142.97849 148.81649 151.73549 154.6545 161.06999 166.90799 172.74599 177.99599 180.915 186.75299 192.59099 195.51 201.34799 207.18599 210.105 213.024 218.862 222.3585 228.1965 233.4465 239.2845 242.2035 245.12252 250.96051 256.79853 259.71754 262.63655 265.55555 271.39356 277.23158 280.15058 287.73158 290.06257 295.31257 301.15058 306.9886 310.48509 313.40409 315.73509 320.98509 323.90409 326.8231 332.6611 338.4991 341.41813 347.25614 353.09416 356.59065 358.92164 361.25263 367.09065 370.58714 373.50614 378.75614 381.67515 387.51316 391.00965 396.25965 398.26515 403.51515 406.43415 412.27217 415.76866 421.60667 424.52568 430.36369 436.2017 442.0397 447.87773 450.2087 455.4587 458.37773">Shared details invite recognition. They do not prove that the wisher is the earlier story's protagonist.</tspan></text>
<text fill="#8c352f" xml:space="preserve" transform="matrix(1 0 -0 1 749.8898 522.75558)" font-size="14" font-family="Arial" font-weight="bold"><tspan y="-4.48" x="21.6416 29.4256 37.209604">164</tspan></text>
<text fill="#606963" xml:space="preserve" transform="matrix(1 0 -0 1 604.8898 551.7596)" font-size="8.7" font-family="Arial"><tspan y="-2.784" x="115.0347 120.8376 123.2562 128.0934 130.9905 135.3405 137.7591 142.5963 147.4335 152.2707 154.2021 159.0393 163.38932 165.8079 170.64511 173.0637 175.4823 180.3195 185.15671">Story begins p. 105</tspan></text>
</svg>
