<svg xmlns="http://www.w3.org/2000/svg" xmlns:xlink="http://www.w3.org/1999/xlink" xmlns:inkscape="http://www.inkscape.org/namespaces/inkscape" version="1.1" width="841.8898" height="595.2756" viewBox="0 0 841.8898 595.2756">
<path transform="matrix(1,0,0,-1,0,595.2756)" d="M0 0H841.8898V595.2756H0Z" fill="#fffefb" fill-rule="evenodd"/>
<text fill="#606963" xml:space="preserve" transform="matrix(1 0 -0 1 47 37.21997)" font-size="8.5" font-family="Arial" font-weight="bold"><tspan y="-2.72" x="0 6.1370007 8.500001 13.6935009 19.363 21.726002 28.339003 34.476 36.839 42.976">CITY GUIDE</tspan></text>
<text fill="#606963" xml:space="preserve" transform="matrix(1 0 -0 1 192 37.21997)" font-size="8.5" font-family="Arial"><tspan y="-2.72" x="533.462 538.188 542.914 545.277 548.1075 550.47048 555.66397 561.80099 567.47048 573.6075 579.277 584.47048 591.08346 597.22048">16 &#x00b7; THEREFORE</tspan></text>
<path transform="matrix(1,0,0,-1,0,595.2756)" stroke-width=".9" stroke-linecap="butt" stroke-miterlimit="10" stroke-linejoin="miter" fill="none" stroke="#78867a" d="M47 548.2756H794.8898"/>
<text fill="#202321" xml:space="preserve" transform="matrix(1 0 -0 1 47 94.359989)" font-size="23" font-family="Arial" font-weight="bold"><tspan y="-7.36" x="0 21.712002 35.765005 48.553007 57.500009 70.28801 76.68201 84.341 98.394008 111.18201 117.576007 130.364 138.023 145.68199 158.46999 178.91699 192.96999 200.62899 213.41698 227.46997 233.86397 247.91696 256.86396 270.91697 284.96998 292.62898 299.02299 311.81098 319.46998 333.52299 347.576 360.36399 366.758 374.417 388.47 394.864 401.25804 415.31105 433.20506 439.59907 453.65208">Where the attempted proof stops following</tspan></text>
<text fill="#606963" xml:space="preserve" transform="matrix(1 0 -0 1 47 116.879978)" font-size="11" font-family="Arial"><tspan y="-3.52" x="0 6.721 12.837001 18.953001 22.011002 28.127003 34.243005 37.906007 41.569009 47.68501 50.743009 56.85901 60.52201 62.623014 68.12302 71.181018 74.23901 76.681018 82.79701 88.91301 91.35501 94.41301 98.07601 104.19201 110.30801 115.80801 121.924 128.04001 130.48201 136.598 142.714 145.772 151.272 157.388 163.504 169.62 175.12 178.178 181.84099 187.95699 191.01499 197.13098 200.79398 206.90998 209.35198 215.46797 221.58397 224.64197 227.69997 233.81597 236.87397 239.31597 242.37397 247.87397 250.93196 256.43196 258.87394 264.98994 267.43193 276.5949 282.7109 288.8269 291.88493 297.38493 303.50093 309.6169 315.1169 317.5589 323.6749 329.1749 331.61689 337.73289 343.84889">The narrator's final reasoning keeps returning to its claimed conclusion.</tspan></text>
<text fill="#606963" xml:space="preserve" transform="matrix(1 0 -0 1 749.8898 570.1556)" font-size="9" font-family="Arial"><tspan y="-2.88" x="34.98926 39.993265">57</tspan></text>
<text fill="#606963" xml:space="preserve" transform="matrix(1 0 -0 1 47 569.49557)" font-size="8.5" font-family="Arial"><tspan y="-2.72" x="0 5.6695005 8.0325 13.702001 16.065 21.258502 23.621502 29.758503 36.371503 38.7345 44.871503 51.4845 57.621503 63.758504 69.428 71.791 74.6215 76.9845 83.1215 85.4845 90.67799 96.347499 98.710498 105.323497 111.460498 113.823497 119.960498 125.63 127.993 130.8235 133.18651 138.856 144.5255 150.19499 155.38849 161.05799 168.13849 173.80799 179.47748 185.61447 187.97748 192.70348 197.42948 202.15547">VISITING HOURS &#x00b7; CITY GUIDE &#x00b7; SEPTEMBER 2026</tspan></text>
<path transform="matrix(1,0,0,-1,0,595.2756)" stroke-width="1.05" stroke-linecap="butt" stroke-dasharray="3,3" stroke-miterlimit="10" stroke-linejoin="miter" fill="none" stroke="#8c352f" d="M278.9633 389.4567H302.9633"/>
<path transform="matrix(1,0,0,-1,0,595.2756)" stroke-width="1" stroke-linecap="butt" stroke-miterlimit="10" stroke-linejoin="miter" fill="none" stroke="#8c352f" d="M302.9633 389.4567 298.5753 391.8538"/>
<path transform="matrix(1,0,0,-1,0,595.2756)" stroke-width="1" stroke-linecap="butt" stroke-miterlimit="10" stroke-linejoin="miter" fill="none" stroke="#8c352f" d="M302.9633 389.4567 298.5753 387.0596"/>
<path transform="matrix(1,0,0,-1,0,595.2756)" stroke-width="1.05" stroke-linecap="butt" stroke-miterlimit="10" stroke-linejoin="miter" fill="none" stroke="#8c352f" d="M537.9265 389.4567H561.9265"/>
<path transform="matrix(1,0,0,-1,0,595.2756)" stroke-width="1" stroke-linecap="butt" stroke-miterlimit="10" stroke-linejoin="miter" fill="none" stroke="#8c352f" d="M561.9265 389.4567 557.5386 391.8538"/>
<path transform="matrix(1,0,0,-1,0,595.2756)" stroke-width="1" stroke-linecap="butt" stroke-miterlimit="10" stroke-linejoin="miter" fill="none" stroke="#8c352f" d="M561.9265 389.4567 557.5386 387.0596"/>
<path transform="matrix(1,0,0,-1,0,595.2756)" stroke-width="1.05" stroke-linecap="butt" stroke-dasharray="3,3" stroke-miterlimit="10" stroke-linejoin="miter" fill="none" stroke="#8c352f" d="M679.9081 330.6378V272.6378"/>
<path transform="matrix(1,0,0,-1,0,595.2756)" stroke-width="1" stroke-linecap="butt" stroke-miterlimit="10" stroke-linejoin="miter" fill="none" stroke="#8c352f" d="M679.9081 272.6378 682.3053 277.0257"/>
<path transform="matrix(1,0,0,-1,0,595.2756)" stroke-width="1" stroke-linecap="butt" stroke-miterlimit="10" stroke-linejoin="miter" fill="none" stroke="#8c352f" d="M679.9081 272.6378 677.511 277.0257"/>
<path transform="matrix(1,0,0,-1,0,595.2756)" stroke-width="1.05" stroke-linecap="butt" stroke-dasharray="3,3" stroke-miterlimit="10" stroke-linejoin="miter" fill="none" stroke="#8c352f" d="M562.9265 213.8189H538.9265"/>
<path transform="matrix(1,0,0,-1,0,595.2756)" stroke-width="1" stroke-linecap="butt" stroke-miterlimit="10" stroke-linejoin="miter" fill="none" stroke="#8c352f" d="M538.9265 213.8189 543.3144 211.4218"/>
<path transform="matrix(1,0,0,-1,0,595.2756)" stroke-width="1" stroke-linecap="butt" stroke-miterlimit="10" stroke-linejoin="miter" fill="none" stroke="#8c352f" d="M538.9265 213.8189 543.3144 216.216"/>
<path transform="matrix(1,0,0,-1,0,595.2756)" d="M47 333.6378H276.96333V445.27558H47Z" fill="#f2f4ef" fill-rule="evenodd"/>
<path transform="matrix(1,0,0,-1,0,595.2756)" stroke-width="1.3" stroke-linecap="butt" stroke-miterlimit="10" stroke-linejoin="miter" fill="none" stroke="#202321" d="M47 445.2756H276.9633"/>
<text fill="#8c352f" xml:space="preserve" transform="matrix(1 0 -0 1 57 173.87998)" font-size="9" font-family="Arial" font-weight="bold"><tspan y="-2.88" x="0 5.0040009">01</tspan></text>
<text fill="#202321" xml:space="preserve" transform="matrix(1 0 -0 1 86 177.17996)" font-size="11.5" font-family="Arial" font-weight="bold"><tspan y="-3.68" x="0 8.303 14.6970009 21.091002 28.117503 38.341005 45.367506 49.197004 52.394 59.4205 66.447 72.840999 76.037998 83.06449 89.45849 92.65549 101.602489 106.07599 109.27299 113.102489 119.49648">Assumptions he writes</tspan></text>
<text fill="#202321" xml:space="preserve" transform="matrix(1 0 -0 1 86 212.69199)" font-size="10.8" font-family="Arial"><tspan y="-17.712" x="0 7.203601 13.208402 16.210803 22.215603 28.220404 34.225206 40.230005 43.826406 49.226408 52.228807 58.233606 64.2384 70.2432 76.248 82.2528 84.6504 90.6552 93.6576 101.4552 107.46 111.0564 113.453998 119.45879 122.4612 125.4636 130.8636 136.86841 142.87322 145.87561 148.27321 154.27802 160.28282 166.28763">An understandable world; continued</tspan><tspan y="-3.4560004" x="0 6.004801 12.009602 17.409602 26.406002 32.410806 38.415605">payment</tspan></text>
<path transform="matrix(1,0,0,-1,0,595.2756)" d="M305.9633 333.6378H535.9266V445.27558H305.9633Z" fill="#f2f4ef" fill-rule="evenodd"/>
<path transform="matrix(1,0,0,-1,0,595.2756)" stroke-width="1.3" stroke-linecap="butt" stroke-miterlimit="10" stroke-linejoin="miter" fill="none" stroke="#202321" d="M305.9633 445.2756H535.9265"/>
<text fill="#8c352f" xml:space="preserve" transform="matrix(1 0 -0 1 315.9633 173.87998)" font-size="9" font-family="Arial" font-weight="bold"><tspan y="-2.88" x="0 5.0040009">02</tspan></text>
<text fill="#202321" xml:space="preserve" transform="matrix(1 0 -0 1 344.9633 177.17996)" font-size="11.5" font-family="Arial" font-weight="bold"><tspan y="-3.68" x="0 8.303 11.500001 17.894001 24.920502 31.947003 36.4205 40.25 46.644 53.038003 56.8675 60.0645 63.893999 68.3675 75.394 81.787998 84.98499 92.01149 98.40549 104.799488 111.19348 115.666988 118.86398 125.89048 129.71999 132.91699 139.9435">A shortest true description</tspan></text>
<text fill="#202321" xml:space="preserve" transform="matrix(1 0 -0 1 344.9633 198.43598)" font-size="10.8" font-family="Arial"><tspan y="-3.456" x="0 6.5988 12.603601 18.608403 21.610802 27.615603 33.620405 37.216806 40.813207 46.81801 49.820409 55.82521 59.42161 62.42401 68.42881 73.82881 79.22881 85.23361 88.83001 91.83241 97.232418 100.23482 102.632419 105.63482 111.03482 114.037227 120.04202 125.442028 127.83962 133.23963 136.24202 142.24683 148.25164 153.65163">The narrator asserts its existence</tspan></text>
<path transform="matrix(1,0,0,-1,0,595.2756)" d="M564.9265 333.6378H794.88986V445.27558H564.9265Z" fill="#f2f4ef" fill-rule="evenodd"/>
<path transform="matrix(1,0,0,-1,0,595.2756)" stroke-width="1.3" stroke-linecap="butt" stroke-miterlimit="10" stroke-linejoin="miter" fill="none" stroke="#202321" d="M564.9265 445.2756H794.8898"/>
<text fill="#8c352f" xml:space="preserve" transform="matrix(1 0 -0 1 574.9265 173.87998)" font-size="9" font-family="Arial" font-weight="bold"><tspan y="-2.88" x="0 5.0040009">03</tspan></text>
<text fill="#202321" xml:space="preserve" transform="matrix(1 0 -0 1 603.9265 177.17996)" font-size="11.5" font-family="Arial" font-weight="bold"><tspan y="-3.68" x="0 8.9470009 15.973501 22.367503 25.564503 31.958504 38.352506 45.379007 49.208505 55.602506 62.629007 69.023 75.417 78.614 85.007999 92.03449 99.06099 105.45499">One sentence added</tspan></text>
<text fill="#202321" xml:space="preserve" transform="matrix(1 0 -0 1 603.9265 198.43598)" font-size="10.8" font-family="Arial"><tspan y="-3.456" x="0 7.203601 10.206001 12.603601 18.608403 24.613204 30.618004 36.622804 40.219205 43.221605 46.224004 49.820405 55.825204 61.83 64.832408 70.837207 76.842 82.242008 87.642009 91.2384 93.636 99.6408 102.6432 105.0408 111.0456 117.0504 120.0528 123.6492 129.654 135.054 141.0588 143.4564 146.4588">A longer true description results</tspan></text>
<path transform="matrix(1,0,0,-1,0,595.2756)" d="M564.9265 158H794.88986V269.63783H564.9265Z" fill="#f2f4ef" fill-rule="evenodd"/>
<path transform="matrix(1,0,0,-1,0,595.2756)" stroke-width="1.3" stroke-linecap="butt" stroke-miterlimit="10" stroke-linejoin="miter" fill="none" stroke="#202321" d="M564.9265 269.6378H794.8898"/>
<text fill="#8c352f" xml:space="preserve" transform="matrix(1 0 -0 1 574.9265 349.51777)" font-size="9" font-family="Arial" font-weight="bold"><tspan y="-2.88" x="0 5.0040009">04</tspan></text>
<text fill="#202321" xml:space="preserve" transform="matrix(1 0 -0 1 603.9265 352.81779)" font-size="11.5" font-family="Arial" font-weight="bold"><tspan y="-3.68" x="0 8.303 15.3295 22.356 26.185502 30.659 37.053 44.079504 47.2765 53.6705 57.5 60.697 67.723499">Contradiction</tspan></text>
<text fill="#202321" xml:space="preserve" transform="matrix(1 0 -0 1 603.9265 374.0738)" font-size="10.8" font-family="Arial"><tspan y="-3.456" x="0 7.7976009 13.802402 16.804802 19.202403 25.207203 31.212004 37.216806 39.614404 45.014406 48.016805 51.019205 57.024003 63.0288 66.031208 69.6276 75.6324 81.0324 87.0372 89.4348 92.4372 95.439609 101.444408 104.44681 109.84681 115.85161 121.85641 124.85881 128.45522 134.46002 140.46483 142.86243 148.26242 151.26482 153.66242 159.66722">He labels the result a contradiction</tspan></text>
<path transform="matrix(1,0,0,-1,0,595.2756)" d="M305.9633 158H535.9266V269.63783H305.9633Z" fill="#efe6df" fill-rule="evenodd"/>
<path transform="matrix(1,0,0,-1,0,595.2756)" stroke-width="1.3" stroke-linecap="butt" stroke-miterlimit="10" stroke-linejoin="miter" fill="none" stroke="#8c352f" d="M305.9633 269.6378H535.9265"/>
<text fill="#8c352f" xml:space="preserve" transform="matrix(1 0 -0 1 315.9633 349.51777)" font-size="9" font-family="Arial" font-weight="bold"><tspan y="-2.88" x="0 5.0040009">05</tspan></text>
<text fill="#202321" xml:space="preserve" transform="matrix(1 0 -0 1 344.9633 352.81779)" font-size="11.5" font-family="Arial" font-weight="bold"><tspan y="-3.68" x="0 7.0265 14.053 20.447 24.920502 31.314503 35.144 42.1705 46.644 53.038003 56.235 59.432 63.9055 70.2995 77.326 83.71999 90.11399 93.94349 100.33749">Therefore, repeated</tspan></text>
<text fill="#202321" xml:space="preserve" transform="matrix(1 0 -0 1 344.9633 388.32978)" font-size="10.8" font-family="Arial"><tspan y="-17.712" x="0 7.7976009 13.802402 16.804802 19.807202 25.812003 29.408402 32.4108 38.415605 44.420404 48.016805 51.019205 56.419206 62.424005 68.4288 73.828807 76.2264 82.2312 87.6312 90.0288 96.0336 102.0384 105.0408 108.043209 114.048007 116.4456 118.8432 124.848 132.6456 138.0456 141.04799 147.0528 153.0576 156.06 159.0624 165.0672">No further conclusion follows on the</tspan><tspan y="-3.4560004" x="0 6.004801 12.009602 18.014403">page</tspan></text>
<text fill="#606963" xml:space="preserve" transform="matrix(1 0 -0 1 47 461.55158)" font-size="9.3" font-family="Arial"><tspan y="-2.976" x="0 5.1708009 7.756201 13.187401 15.772801 20.943602 23.529002 26.1144 31.285202 35.935205 40.585206 45.756006 48.852907 51.438306 56.609106 61.779905 64.3653 69.5361 74.186107 76.77151 79.35691 84.52771 89.69851 92.28391 97.45471 102.62551 105.72241 108.81931 113.99011 116.575519 121.746318 124.843219 127.42862 130.01403 132.59943 137.77024 140.35564 145.78684 148.37224 153.54305 156.12845 158.71385 163.88466 169.05547 174.22628 178.87627 181.46167 186.63248 189.21788 193.86788 199.03868 204.20949 206.79489 211.9657 217.1365 221.7865 226.9573 229.54271 232.12812 234.71352 239.88433 242.46973 247.90093 250.48633 255.65714 258.24253 260.8279 262.89253 268.06333 272.71333 277.88414 279.94874 282.01335 287.18415 289.76954 291.83415 297.00495 299.59034 304.76115 307.85804 313.02885 318.19966 322.84965 328.02046 330.60585 333.19123 335.7766 340.94743 343.5328 348.96403 351.5494 356.7202 359.3056 361.891 366.541 368.6056 373.7764 375.841 383.5879 388.7587 393.9295 396.5149 401.1649 406.3357 411.5065 416.1565 418.2211 423.3919 428.0419 430.1065 435.2773">1 &#x003e; 2: asserted by the narrator / 2 &#x003e; 3: adds a sentence / 3 &#x003e; 4: invalid inference / 4 &#x003e; 5: claimed conclusion</tspan></text>
<path transform="matrix(1,0,0,-1,0,595.2756)" stroke-width=".65" stroke-linecap="butt" stroke-miterlimit="10" stroke-linejoin="miter" fill="none" stroke="#202321" d="M47 102H794.8898"/>
<text fill="#202321" xml:space="preserve" transform="matrix(1 0 -0 1 47 518.13558)" font-size="10.5" font-family="Arial" font-style="italic"><tspan y="-3.36" x="0 7.0035006 9.922501 12.253501 18.091502 23.929503 29.767504 35.605504 39.102006 42.021005 44.940004 48.4365 54.2745 60.112504 63.0315 68.8695 74.7075 79.9575 85.2075 88.703998 91.034999 96.87299 99.79199 102.12299 107.96099 113.79899 116.71799 122.555988 128.39398 134.23198 139.48198 142.40099 148.23899 154.07698 156.99599 159.915 163.4115 169.2495 172.1685 178.0065 180.9255 186.7635 189.68251 195.52051 198.43952 203.68952 209.52751 215.36551 218.86202 221.78102 227.61902 232.86902 235.78803 238.70703 244.54503 250.38303 256.22105 259.14006 262.05906 268.47456 274.31257 280.15058 283.06959 285.40058 291.2386 296.4886 299.4076 302.3266 304.6576 310.4956 313.4146 319.25263 322.7491 328.58714 334.42515 339.67515 345.51316 348.43217 351.35118 357.18919 359.52018 361.85118 367.10118 370.02018 372.93919 378.7772 382.27369 391.02018 396.8582 399.18919 401.52018 406.77018 409.68919 412.6082 420.18919 426.0272 431.2772 434.1962 440.0342 445.87223 451.71025 456.96025 459.87925 462.79826 468.63627 474.47428 477.39329 482.64329 488.4813 494.3193 500.15733 505.40733 511.24534 514.7418 517.6608 523.49887 529.33688 535.17489 541.0129 543.9319 546.2629 549.1819 552.1009 555.0199 560.8579 563.7769 566.6959 572.53396 574.8649 577.1959 583.03396 590.6149">A longer true description does not refute a shortest one. The last inference fails formally; why does the speaker need it to follow?</tspan></text>
<text fill="#8c352f" xml:space="preserve" transform="matrix(1 0 -0 1 749.8898 522.75558)" font-size="14" font-family="Arial" font-weight="bold"><tspan y="-4.48" x="21.6416 29.4256 37.209604">048</tspan></text>
<text fill="#606963" xml:space="preserve" transform="matrix(1 0 -0 1 604.8898 551.7596)" font-size="8.7" font-family="Arial"><tspan y="-2.784" x="119.8732 125.6761 128.0947 132.9319 135.829 140.179 142.5976 147.4348 152.272 157.1092 159.0406 163.8778 168.22782 170.64641 175.48361 177.9022 180.3208 185.158">Story begins p. 34</tspan></text>
</svg>
