<svg xmlns="http://www.w3.org/2000/svg" xmlns:xlink="http://www.w3.org/1999/xlink" xmlns:inkscape="http://www.inkscape.org/namespaces/inkscape" version="1.1" width="841.8898" height="595.2756" viewBox="0 0 841.8898 595.2756">
<path transform="matrix(1,0,0,-1,0,595.2756)" d="M0 0H841.8898V595.2756H0Z" fill="#fffefb" fill-rule="evenodd"/>
<text fill="#606963" xml:space="preserve" transform="matrix(1 0 -0 1 47 37.21997)" font-size="8.5" font-family="Arial" font-weight="bold"><tspan y="-2.72" x="0 5.6695005 11.339001 17.476002 19.839003 25.976004 28.339005 34.476007 40.145509 46.28251 52.41951 58.089014 64.22601">&#x015e;EH&#x0130;R REHBER&#x0130;</tspan></text>
<text fill="#606963" xml:space="preserve" transform="matrix(1 0 -0 1 192 37.21997)" font-size="8.5" font-family="Arial"><tspan y="-2.72" x="555.6583 560.38436 565.11038 567.4733 570.30386 572.6668 577.8603 583.5298 589.6668 592.0298 597.22329">15 &#x00b7; TAR&#x0130;FE</tspan></text>
<path transform="matrix(1,0,0,-1,0,595.2756)" stroke-width=".9" stroke-linecap="butt" stroke-miterlimit="10" stroke-linejoin="miter" fill="none" stroke="#78867a" d="M47 548.2756H794.8898"/>
<text fill="#202321" xml:space="preserve" transform="matrix(1 0 -0 1 47 94.359989)" font-size="23" font-family="Arial" font-weight="bold"><tspan y="-7.36" x="0 17.894001 30.682003 43.470006 49.864007 62.652009 69.046009 83.09901 95.88701 104.83401 117.62201 125.281009 131.675 145.728 152.122 166.17499 172.56899 186.62198 199.40998 205.80397 212.19797 221.14498 228.80397 235.19797 241.59197 254.37996 268.43296 274.82698 288.87998 301.66798 308.06199 320.84999 333.63798 340.03199 346.426 366.873 379.66099 386.055 393.714 407.767 421.82 428.21403 441.002 461.449">Ge&#x00e7;i&#x015f; &#x00fc;cretinin belirtilen &#x00fc;&#x00e7; kelime toplam&#x0131;</tspan></text>
<text fill="#606963" xml:space="preserve" transform="matrix(1 0 -0 1 47 116.879978)" font-size="11" font-family="Arial"><tspan y="-3.52" x="0 7.942001 14.0580019 20.174002 26.290003 31.790003 34.232004 40.348005 44.011 47.069 50.127 55.627 61.743 64.185 66.627 75.79 81.906 84.964 90.464 92.906 99.021999 104.521999 106.964 113.079998 119.19599 125.31199 131.428 134.486 140.60199 146.71799 152.21799 154.65999 160.15999 163.21799 169.33399 174.83399 178.49698 184.61298 187.67098 190.11298 196.22898 199.89197 202.33397 208.44997 210.89197 213.94997 219.44997 225.56597 229.22896 234.72896 237.78696 240.22896 246.34496 251.84496 254.90296 257.96098 261.62397 264.68199 268.34498 271.40299 274.461 280.577 286.693 292.193 298.309 303.809 306.25099 309.309 311.75099 317.25099 319.69297 322.75099 331.91398 338.02998 344.14598 350.26197 356.37797 358.81996 361.87797 367.99397 374.10997 377.77296 383.88896 386.33094 389.38896 394.88896 397.94697 404.06297 409.56297 413.22596 419.34196 422.39997 425.45799 431.57398 437.68998 443.18998 448.68998 454.80598 457.86399 463.97999 466.42198 470.08497 473.14299 479.25898 481.70097 485.36396 487.80595 496.96894 503.08494 505.52693 509.1899">&#x00c7;ubuklar, kelime cinsinden ge&#x00e7;i&#x015f; &#x00fc;cretlerini kar&#x015f;&#x0131;la&#x015f;t&#x0131;r&#x0131;r; &#x00f6;nceki iki madeni paral&#x0131;k &#x00fc;cret ba&#x015f;ka bir birimdir.</tspan></text>
<text fill="#606963" xml:space="preserve" transform="matrix(1 0 -0 1 749.8898 570.1556)" font-size="9" font-family="Arial"><tspan y="-2.88" x="34.98926 39.993265">52</tspan></text>
<text fill="#606963" xml:space="preserve" transform="matrix(1 0 -0 1 47 569.49557)" font-size="8.5" font-family="Arial"><tspan y="-2.72" x="0 5.1935 7.5565006 13.226001 18.8955 25.032502 30.702002 35.8955 38.2585 43.928 49.597505 55.267007 60.460508 65.18651 70.85601 76.99301 79.35601 81.71901 84.54951 86.912509 92.58201 98.25151 104.38851 106.75151 112.88851 115.25151 121.38851 127.058017 133.195 138.8645 144.534 150.67099 153.034 155.397 158.22751 160.59052 166.26001 171.9295 176.6555 182.7925 187.5185 189.8815 194.6075 199.3335 204.0595">Z&#x0130;YARET SAATLER&#x0130; &#x00b7; &#x015e;EH&#x0130;R REHBER&#x0130; &#x00b7; EYL&#x00dc;L 2026</tspan></text>
<text fill="#606963" xml:space="preserve" transform="matrix(1 0 -0 1 47 164.25598)" font-size="10.8" font-family="Arial" font-style="italic"><tspan y="-3.456" x="0 5.4 11.4048 16.8048 19.2024 25.207201 34.2036 40.208406 45.608407 48.610807 51.613206 57.013208 63.018007 69.022808 72.02521 75.02761 77.42521 83.43001 89.43481 98.431209 101.43361 106.83361 109.83601 115.236019 121.240818 123.63841 126.03601 135.03241 141.03722 143.43482 149.43962">saklamas&#x0131; kan&#x0131;tlanm&#x0131;&#x015f; kelimeler</tspan></text>
<text fill="#202321" xml:space="preserve" transform="matrix(1 0 -0 1 47 203.51996)" font-size="11" font-family="Arial" font-weight="bold"><tspan y="-3.52" x="0 8.558001 14.674002 20.790003 26.906004 33.627004 36.685 42.801004 45.859">Ge&#x00e7;en y&#x0131;l</tspan></text>
<path transform="matrix(1,0,0,-1,0,595.2756)" d="M282 389.2756H727.8898V402.2756H282Z" fill="#f2f4ef" fill-rule="evenodd"/>
<path transform="matrix(1,0,0,-1,0,595.2756)" d="M282 389.2756H579.25979V402.2756H282Z" fill="#efe6df" fill-rule="evenodd"/>
<path transform="matrix(1,0,0,-1,0,595.2756)" stroke-width="1" stroke-linecap="butt" stroke-miterlimit="10" stroke-linejoin="miter" fill="none" stroke="#8c352f" d="M282 389.2756H579.25979V402.2756H282Z"/>
<text fill="#8c352f" xml:space="preserve" transform="matrix(1 0 -0 1 737.8898 203.51996)" font-size="11" font-family="Arial" font-weight="bold"><tspan y="-3.52" x="0 6.1160008 12.232001">200</tspan></text>
<text fill="#606963" xml:space="preserve" transform="matrix(1 0 -0 1 282 226.33197)" font-size="10.1" font-family="Arial"><tspan y="-3.232" x="0 6.736701 12.352302 14.5945019 16.836703 25.250004 30.865605 33.673406 38.723405 40.965604 46.581205 51.631204 53.8734 59.489004 65.1046 70.7202 76.3358 79.1436 84.7592 90.3748 92.617008 94.85921 98.2225 101.030307 103.27251 105.51471 111.13031 116.74591 119.55371 121.79591 124.03812 129.08812 131.89592 137.51152 143.12712 148.17713 153.79273">Kelime cinsinden belirtilen ilk d&#x00fc;zey</tspan></text>
<text fill="#202321" xml:space="preserve" transform="matrix(1 0 -0 1 47 286.27848)" font-size="11" font-family="Arial" font-weight="bold"><tspan y="-3.52" x="0 8.558001 14.674002 20.790003 26.906004 31.185006 34.243005 37.301004 40.359 44.022005 50.138006 54.417005 57.475004 61.138">Ge&#x00e7;erli tarife</tspan></text>
<path transform="matrix(1,0,0,-1,0,595.2756)" d="M282 306.5171H727.8898V319.5171H282Z" fill="#f2f4ef" fill-rule="evenodd"/>
<path transform="matrix(1,0,0,-1,0,595.2756)" d="M282 306.5171H638.7118V319.5171H282Z" fill="#efe6df" fill-rule="evenodd"/>
<path transform="matrix(1,0,0,-1,0,595.2756)" stroke-width="1" stroke-linecap="butt" stroke-miterlimit="10" stroke-linejoin="miter" fill="none" stroke="#8c352f" d="M282 306.5171H638.7118V319.5171H282Z"/>
<text fill="#8c352f" xml:space="preserve" transform="matrix(1 0 -0 1 737.8898 286.27848)" font-size="11" font-family="Arial" font-weight="bold"><tspan y="-3.52" x="0 6.1160008 12.232001">240</tspan></text>
<text fill="#606963" xml:space="preserve" transform="matrix(1 0 -0 1 282 309.09049)" font-size="10.1" font-family="Arial"><tspan y="-3.232" x="0 7.292201 12.907802 17.957802 23.573403 29.189003 31.431204 37.046808 42.662408 48.278009 53.89361 56.70141 62.31701 65.680309 68.488109 71.295909 76.34591 79.15371 81.96151 87.57711 93.19271 98.80831 101.61611 104.97941 107.78721 113.40281 119.01841 124.63401 127.44181 133.34021 136.14801 141.76361">Hesaplanan art&#x0131;&#x015f;: 240 - 200 = 40</tspan></text>
<text fill="#202321" xml:space="preserve" transform="matrix(1 0 -0 1 47 369.03709)" font-size="11" font-family="Arial" font-weight="bold"><tspan y="-3.52" x="0 7.337001 10.395001 13.453002 16.511002 23.232003 26.290003 32.406003 39.127004 45.848005 48.906003 55.627004 62.348005 69.069">Y&#x0131;l&#x0131;n son g&#x00fc;n&#x00fc;</tspan></text>
<path transform="matrix(1,0,0,-1,0,595.2756)" d="M282 223.7585H727.8898V236.7585H282Z" fill="#f2f4ef" fill-rule="evenodd"/>
<path transform="matrix(1,0,0,-1,0,595.2756)" d="M282 223.7585H727.8898V236.7585H282Z" fill="#efe6df" fill-rule="evenodd"/>
<path transform="matrix(1,0,0,-1,0,595.2756)" stroke-width="1" stroke-linecap="butt" stroke-miterlimit="10" stroke-linejoin="miter" fill="none" stroke="#8c352f" d="M282 223.7585H727.8898V236.7585H282Z"/>
<text fill="#8c352f" xml:space="preserve" transform="matrix(1 0 -0 1 737.8898 369.03709)" font-size="11" font-family="Arial" font-weight="bold"><tspan y="-3.52" x="0 6.1160008 12.232001">300</tspan></text>
<text fill="#606963" xml:space="preserve" transform="matrix(1 0 -0 1 282 391.84907)" font-size="10.1" font-family="Arial"><tspan y="-3.232" x="0 7.292201 12.907802 17.957802 23.573403 29.189003 31.431204 37.046808 42.662408 48.278009 53.89361 56.70141 62.31701 65.680309 68.488109 71.295909 76.34591 79.15371 81.96151 87.57711 93.19271 98.80831 101.61611 104.97941 107.78721 113.40281 119.01841 124.63401 127.44181 133.34021 136.14801 141.76361">Hesaplanan art&#x0131;&#x015f;: 300 - 240 = 60</tspan></text>
<path transform="matrix(1,0,0,-1,0,595.2756)" stroke-width=".65" stroke-linecap="butt" stroke-miterlimit="10" stroke-linejoin="miter" fill="none" stroke="#202321" d="M47 102H794.8898"/>
<text fill="#202321" xml:space="preserve" transform="matrix(1 0 -0 1 47 518.13558)" font-size="10.5" font-family="Arial" font-style="italic"><tspan y="-3.36" x="0 7.0035006 10.5 13.419001 16.338002 21.588002 23.919 29.757002 33.2535 36.1725 42.0105 47.848505 53.098505 58.936506 64.774509 67.10551 72.943508 78.7815 84.6195 90.4575 93.376499 96.295497 102.13349 105.62999 110.87999 113.21099 119.04899 122.54549 128.38349 131.30249 134.799 137.718 140.63701 146.475 152.313 157.563 163.401 166.32 172.158 177.996 180.91501 183.83402 189.08402 194.92201 200.76001 204.25652 210.09452 213.01352 218.85152 224.68952 227.60852 232.85852 238.69652 241.02751 243.3585 252.10501 257.94303 260.86204 263.78105 270.78456 276.62257 279.54158 285.37959 290.62959 293.54859 299.3866 305.2246 310.4746 316.31263 321.56263 327.40065 333.23866 339.07667 341.99568 347.83369 353.6717 356.5907 362.4287 364.7597 368.2562 371.1752 376.4252 379.3442 381.6752 384.5942 390.43223 393.35124 399.18925 405.02726 410.27726 416.11528 421.36528 423.69627 426.61528 429.53428 435.37229 438.86878 441.19978 444.11878 449.9568 452.28779 458.1258 461.62229 463.95329 466.87229 472.12229 475.0413 480.2913 486.1293 489.6258 492.5448 494.8758 500.7138 509.4603 515.2983 520.5483">Art&#x0131;&#x015f;lar hesaplanan farklard&#x0131;r: &#x00f6;nce 40, sonra 60 kelime. Bu &#x00fc;&#x00e7; d&#x00fc;zeyden on bir y&#x0131;l&#x0131;n &#x00f6;nceki tarifeleri &#x00e7;&#x0131;kar&#x0131;lamaz.</tspan></text>
<text fill="#8c352f" xml:space="preserve" transform="matrix(1 0 -0 1 749.8898 522.75558)" font-size="14" font-family="Arial" font-weight="bold"><tspan y="-4.48" x="21.6416 29.4256 37.209604">043</tspan></text>
<text fill="#606963" xml:space="preserve" transform="matrix(1 0 -0 1 604.8898 551.7596)" font-size="8.7" font-family="Arial"><tspan y="-2.784" x="103.9218 110.6904 115.0404 119.390399 124.2276 126.6462 131.4834 136.3206 140.67061 142.602 147.43921 152.27642 157.11362 159.53221 163.88222 166.30081 168.7194 171.138 175.488 177.9066 180.3252 185.1624">&#x00d6;yk&#x00fc; ba&#x015f;lang&#x0131;c&#x0131;: s. 33</tspan></text>
</svg>
