<svg xmlns="http://www.w3.org/2000/svg" xmlns:xlink="http://www.w3.org/1999/xlink" xmlns:inkscape="http://www.inkscape.org/namespaces/inkscape" version="1.1" width="841.8898" height="595.2756" viewBox="0 0 841.8898 595.2756">
<path transform="matrix(1,0,0,-1,0,595.2756)" d="M0 0H841.8898V595.2756H0Z" fill="#fffefb" fill-rule="evenodd"/>
<text fill="#606963" xml:space="preserve" transform="matrix(1 0 -0 1 47 37.21997)" font-size="8.5" font-family="Arial" font-weight="bold"><tspan y="-2.72" x="0 5.6695005 11.339001 17.476002 19.839003 25.976004 28.339005 34.476007 40.145509 46.28251 52.41951 58.089014 64.22601">&#x015e;EH&#x0130;R REHBER&#x0130;</tspan></text>
<text fill="#606963" xml:space="preserve" transform="matrix(1 0 -0 1 192 37.21997)" font-size="8.5" font-family="Arial"><tspan y="-2.72" x="557.0736 561.7996 566.52566 568.8886 571.7191 574.0821 580.2191 585.8886 591.5581 597.6951">52 &#x00b7; HAVUZ</tspan></text>
<path transform="matrix(1,0,0,-1,0,595.2756)" stroke-width=".9" stroke-linecap="butt" stroke-miterlimit="10" stroke-linejoin="miter" fill="none" stroke="#78867a" d="M47 548.2756H794.8898"/>
<text fill="#202321" xml:space="preserve" transform="matrix(1 0 -0 1 47 94.359989)" font-size="23" font-family="Arial" font-weight="bold"><tspan y="-7.36" x="0 16.606 29.394001 43.447004 49.841005 63.894006 70.288 84.341 97.129009 106.076007 118.864009 131.65201 144.44 150.834 164.887 171.28099 185.33399 198.12198 210.90998 223.69797 237.75096 244.14496 258.19798 270.98597 277.37998 290.16798 296.56199 317.00898 323.40299 336.19099 348.97898 357.92597 370.71397 379.66096 386.05497 398.84297 411.63096 420.57795 426.97196">Kan&#x0131;n nereye gidece&#x011f;ine kim karar verir</tspan></text>
<text fill="#606963" xml:space="preserve" transform="matrix(1 0 -0 1 47 116.879978)" font-size="11" font-family="Arial"><tspan y="-3.52" x="0 7.337001 9.779001 13.442001 19.558003 22.000002 25.663002 28.105002 33.605005 36.047006 42.163007 45.221006 50.721006 56.837007 60.500009 63.558008 69.05801 75.174 81.29 84.348 90.464 96.579998 102.079998 105.13799 107.579998 113.69599 119.81199 122.25399 128.37 130.812 136.928 140.59099 143.64899 146.70699 152.82299 158.32299 164.43898 167.49698 170.55498 173.61298 179.72898 185.22898 188.28697 193.78697 196.84497 202.34497 205.40297 211.51897 217.63497 220.69297 226.80896 229.25096 232.91396 235.35596 241.47196 246.97196 249.41396 253.07695">Birbiriyle yar&#x0131;&#x015f;an hak iddialar&#x0131; ayn&#x0131; ta&#x015f;&#x0131;y&#x0131;c&#x0131;da birle&#x015f;ir.</tspan></text>
<text fill="#606963" xml:space="preserve" transform="matrix(1 0 -0 1 749.8898 570.1556)" font-size="9" font-family="Arial"><tspan y="-2.88" x="29.98389 34.987894 39.991895">167</tspan></text>
<text fill="#606963" xml:space="preserve" transform="matrix(1 0 -0 1 47 569.49557)" font-size="8.5" font-family="Arial"><tspan y="-2.72" x="0 5.1935 7.5565006 13.226001 18.8955 25.032502 30.702002 35.8955 38.2585 43.928 49.597505 55.267007 60.460508 65.18651 70.85601 76.99301 79.35601 81.71901 84.54951 86.912509 92.58201 98.25151 104.38851 106.75151 112.88851 115.25151 121.38851 127.058017 133.195 138.8645 144.534 150.67099 153.034 155.397 158.22751 160.59052 166.26001 171.9295 176.6555 182.7925 187.5185 189.8815 194.6075 199.3335 204.0595">Z&#x0130;YARET SAATLER&#x0130; &#x00b7; &#x015e;EH&#x0130;R REHBER&#x0130; &#x00b7; EYL&#x00dc;L 2026</tspan></text>
<path transform="matrix(1,0,0,-1,0,595.2756)" stroke-width=".9" stroke-linecap="butt" stroke-miterlimit="10" stroke-linejoin="miter" fill="none" stroke="#78867a" d="M308.7614 378.2067H296.7614"/>
<path transform="matrix(1,0,0,-1,0,595.2756)" stroke-width=".9" stroke-linecap="butt" stroke-miterlimit="10" stroke-linejoin="miter" fill="none" stroke="#78867a" d="M296.7614 378.2067V454.2756"/>
<path transform="matrix(1,0,0,-1,0,595.2756)" stroke-width=".9" stroke-linecap="butt" stroke-miterlimit="10" stroke-linejoin="miter" fill="none" stroke="#78867a" d="M296.7614 454.2756H266.9302"/>
<path transform="matrix(1,0,0,-1,0,595.2756)" stroke-width=".9" stroke-linecap="butt" stroke-miterlimit="10" stroke-linejoin="miter" fill="none" stroke="#78867a" d="M266.9302 454.2756V301.6378"/>
<path transform="matrix(1,0,0,-1,0,595.2756)" stroke-width="1.05" stroke-linecap="butt" stroke-miterlimit="10" stroke-linejoin="miter" fill="none" stroke="#78867a" d="M266.9302 301.6378H251.9302"/>
<path transform="matrix(1,0,0,-1,0,595.2756)" stroke-width="1" stroke-linecap="butt" stroke-miterlimit="10" stroke-linejoin="miter" fill="none" stroke="#78867a" d="M251.9302 301.6378 256.3181 299.2407"/>
<path transform="matrix(1,0,0,-1,0,595.2756)" stroke-width="1" stroke-linecap="butt" stroke-miterlimit="10" stroke-linejoin="miter" fill="none" stroke="#78867a" d="M251.9302 301.6378 256.3181 304.0349"/>
<path transform="matrix(1,0,0,-1,0,595.2756)" stroke-width=".9" stroke-linecap="butt" stroke-dasharray="3,3" stroke-miterlimit="10" stroke-linejoin="miter" fill="none" stroke="#78867a" d="M561.3256 378.2067H549.3256"/>
<path transform="matrix(1,0,0,-1,0,595.2756)" stroke-width=".9" stroke-linecap="butt" stroke-dasharray="3,3" stroke-miterlimit="10" stroke-linejoin="miter" fill="none" stroke="#78867a" d="M549.3256 378.2067V454.2756"/>
<path transform="matrix(1,0,0,-1,0,595.2756)" stroke-width=".9" stroke-linecap="butt" stroke-dasharray="3,3" stroke-miterlimit="10" stroke-linejoin="miter" fill="none" stroke="#78867a" d="M549.3256 454.2756H266.9302"/>
<path transform="matrix(1,0,0,-1,0,595.2756)" stroke-width=".9" stroke-linecap="butt" stroke-dasharray="3,3" stroke-miterlimit="10" stroke-linejoin="miter" fill="none" stroke="#78867a" d="M266.9302 454.2756V301.6378"/>
<path transform="matrix(1,0,0,-1,0,595.2756)" stroke-width="1.05" stroke-linecap="butt" stroke-dasharray="3,3" stroke-miterlimit="10" stroke-linejoin="miter" fill="none" stroke="#78867a" d="M266.9302 301.6378H251.9302"/>
<path transform="matrix(1,0,0,-1,0,595.2756)" stroke-width="1" stroke-linecap="butt" stroke-miterlimit="10" stroke-linejoin="miter" fill="none" stroke="#78867a" d="M251.9302 301.6378 256.3181 299.2407"/>
<path transform="matrix(1,0,0,-1,0,595.2756)" stroke-width="1" stroke-linecap="butt" stroke-miterlimit="10" stroke-linejoin="miter" fill="none" stroke="#78867a" d="M251.9302 301.6378 256.3181 304.0349"/>
<path transform="matrix(1,0,0,-1,0,595.2756)" stroke-width=".9" stroke-linecap="butt" stroke-miterlimit="10" stroke-linejoin="miter" fill="none" stroke="#78867a" d="M308.7614 225.0689H296.7614"/>
<path transform="matrix(1,0,0,-1,0,595.2756)" stroke-width=".9" stroke-linecap="butt" stroke-miterlimit="10" stroke-linejoin="miter" fill="none" stroke="#78867a" d="M296.7614 225.0689V454.2756"/>
<path transform="matrix(1,0,0,-1,0,595.2756)" stroke-width=".9" stroke-linecap="butt" stroke-miterlimit="10" stroke-linejoin="miter" fill="none" stroke="#78867a" d="M296.7614 454.2756H266.9302"/>
<path transform="matrix(1,0,0,-1,0,595.2756)" stroke-width=".9" stroke-linecap="butt" stroke-miterlimit="10" stroke-linejoin="miter" fill="none" stroke="#78867a" d="M266.9302 454.2756V301.6378"/>
<path transform="matrix(1,0,0,-1,0,595.2756)" stroke-width="1.05" stroke-linecap="butt" stroke-miterlimit="10" stroke-linejoin="miter" fill="none" stroke="#78867a" d="M266.9302 301.6378H251.9302"/>
<path transform="matrix(1,0,0,-1,0,595.2756)" stroke-width="1" stroke-linecap="butt" stroke-miterlimit="10" stroke-linejoin="miter" fill="none" stroke="#78867a" d="M251.9302 301.6378 256.3181 299.2407"/>
<path transform="matrix(1,0,0,-1,0,595.2756)" stroke-width="1" stroke-linecap="butt" stroke-miterlimit="10" stroke-linejoin="miter" fill="none" stroke="#78867a" d="M251.9302 301.6378 256.3181 304.0349"/>
<path transform="matrix(1,0,0,-1,0,595.2756)" stroke-width=".9" stroke-linecap="butt" stroke-miterlimit="10" stroke-linejoin="miter" fill="none" stroke="#78867a" d="M561.3256 225.0689H549.3256"/>
<path transform="matrix(1,0,0,-1,0,595.2756)" stroke-width=".9" stroke-linecap="butt" stroke-miterlimit="10" stroke-linejoin="miter" fill="none" stroke="#78867a" d="M549.3256 225.0689V454.2756"/>
<path transform="matrix(1,0,0,-1,0,595.2756)" stroke-width=".9" stroke-linecap="butt" stroke-miterlimit="10" stroke-linejoin="miter" fill="none" stroke="#78867a" d="M549.3256 454.2756H266.9302"/>
<path transform="matrix(1,0,0,-1,0,595.2756)" stroke-width=".9" stroke-linecap="butt" stroke-miterlimit="10" stroke-linejoin="miter" fill="none" stroke="#78867a" d="M266.9302 454.2756V301.6378"/>
<path transform="matrix(1,0,0,-1,0,595.2756)" stroke-width="1.05" stroke-linecap="butt" stroke-miterlimit="10" stroke-linejoin="miter" fill="none" stroke="#78867a" d="M266.9302 301.6378H251.9302"/>
<path transform="matrix(1,0,0,-1,0,595.2756)" stroke-width="1" stroke-linecap="butt" stroke-miterlimit="10" stroke-linejoin="miter" fill="none" stroke="#78867a" d="M251.9302 301.6378 256.3181 299.2407"/>
<path transform="matrix(1,0,0,-1,0,595.2756)" stroke-width="1" stroke-linecap="butt" stroke-miterlimit="10" stroke-linejoin="miter" fill="none" stroke="#78867a" d="M251.9302 301.6378 256.3181 304.0349"/>
<path transform="matrix(1,0,0,-1,0,595.2756)" d="M47 229.8189H248.9302V373.4567H47Z" fill="#efe6df" fill-rule="evenodd"/>
<path transform="matrix(1,0,0,-1,0,595.2756)" stroke-width="1.3" stroke-linecap="butt" stroke-miterlimit="10" stroke-linejoin="miter" fill="none" stroke="#8c352f" d="M47 373.4567H248.9302"/>
<text fill="#202321" xml:space="preserve" transform="matrix(1 0 -0 1 59 248.99887)" font-size="11.5" font-family="Arial" font-weight="bold"><tspan y="-3.68" x="0 8.303 11.500001 15.329501 18.5265 26.829503 33.223505 40.250005 43.447004 47.2765 53.6705 60.064504 63.2615 69.6555 72.8525 79.2465 82.4435 88.837497">A &#x00b7; Kan ta&#x015f;&#x0131;y&#x0131;c&#x0131;s&#x0131;</tspan></text>
<text fill="#202321" xml:space="preserve" transform="matrix(1 0 -0 1 59 284.51087)" font-size="10.8" font-family="Arial"><tspan y="-17.712" x="0 7.203601 13.208402 19.213204 25.218005 28.220406 34.225206 40.230005 46.234804 49.2372 54.637205 57.639604 63.039606 69.0444 72.6408 75.6432 79.2396 82.242008 85.24441 90.64441 96.64921 102.65401 106.250408 112.2552 115.25761 121.262409 127.267208 130.8636">Suna onu &#x00e7;&#x0131;kar&#x0131;r; sonra geri</tspan><tspan y="-3.4560004" x="0 6.004801 12.009602 15.012002 17.409604 21.006003 23.403603 25.801203 34.797605 40.802408 46.202409 48.600008 54.604806 60.609605 63.612005 69.012 75.0168 78.6132 84.618 87.6204 96.6168 99.6192 105.624 111.6288 117.6336 121.229999">getirilmesine yard&#x0131;m eder.</tspan></text>
<path transform="matrix(1,0,0,-1,0,595.2756)" d="M308.7614 311.1378H542.3256V445.27558H308.7614Z" fill="#f2f4ef" fill-rule="evenodd"/>
<path transform="matrix(1,0,0,-1,0,595.2756)" stroke-width="1.3" stroke-linecap="butt" stroke-miterlimit="10" stroke-linejoin="miter" fill="none" stroke="#202321" d="M308.7614 445.2756H542.3256"/>
<text fill="#202321" xml:space="preserve" transform="matrix(1 0 -0 1 320.7614 177.17996)" font-size="11.5" font-family="Arial" font-weight="bold"><tspan y="-3.68" x="0 8.303 11.500001 15.329501 18.5265 26.197003 33.223505 40.250005">B &#x00b7; Suna</tspan></text>
<text fill="#202321" xml:space="preserve" transform="matrix(1 0 -0 1 320.7614 212.69199)" font-size="10.8" font-family="Arial"><tspan y="-17.712" x="0 7.203601 13.208402 19.213204 25.218005 34.214406 40.219209 43.221609 52.21801 54.61561 58.21201 64.21681 69.61681 72.61922 75.62162 79.21802 82.22042 85.222827 91.22762 97.23242 103.23722 109.24202 114.64202 117.03962 123.04442 125.44202 131.44683 134.44922 140.45403 146.45883 149.46123 151.85883 160.85523 166.86003 172.26003 175.26242 181.26723 184.26963 187.27202 192.67201">Konumu mirast&#x0131;r; annesinin an&#x0131;lmas&#x0131;n&#x0131; ve</tspan><tspan y="-3.4560004" x="0 6.004801 12.009602 14.407202 19.807202 25.812003 31.816803 37.8216 40.824 43.221605 48.621606 51.624006 57.628808 61.22521">balkonu ister.</tspan></text>
<path transform="matrix(1,0,0,-1,0,595.2756)" d="M561.3256 311.1378H794.88986V445.27558H561.3256Z" fill="#f2f4ef" fill-rule="evenodd"/>
<path transform="matrix(1,0,0,-1,0,595.2756)" stroke-width="1.3" stroke-linecap="butt" stroke-miterlimit="10" stroke-linejoin="miter" fill="none" stroke="#202321" d="M561.3256 445.2756H794.8898"/>
<text fill="#202321" xml:space="preserve" transform="matrix(1 0 -0 1 573.3256 177.17996)" font-size="11.5" font-family="Arial" font-weight="bold"><tspan y="-3.68" x="0 8.303 11.500001 15.329501 18.5265 26.197003 33.223505 39.617506 46.011507 52.405508 56.235006 62.629007 69.023 72.22 75.417 81.811 88.837497 95.23149">C &#x00b7; Sokaktaki adam</tspan></text>
<text fill="#202321" xml:space="preserve" transform="matrix(1 0 -0 1 573.3256 212.69199)" font-size="10.8" font-family="Arial"><tspan y="-17.712" x="0 8.402401 11.998801 15.001202 21.006003 26.406002 29.408402 35.4132 41.418 46.818 49.8204 52.218004 58.2228 64.2276 66.6252 72.63 75.6324 81.6372 87.642 93.6468 97.243198 100.2456 103.248 106.250408 112.2552 115.8516 121.8564 127.8612 133.2612 136.2636 139.26599 145.2708 147.6684 153.6732 159.67801 165.68282">Ortak hak iddia eder; torbay&#x0131; olu&#x011f;un</tspan><tspan y="-3.4560004" x="0 6.004801 11.4048 14.407201 20.412003 26.416804 32.421606 38.426408 41.428808 44.431207 50.436006 53.438405 59.443208 63.039609">&#x00fc;st&#x00fc;nde tutar.</tspan></text>
<path transform="matrix(1,0,0,-1,0,595.2756)" d="M308.7614 158H542.3256V292.13783H308.7614Z" fill="#f2f4ef" fill-rule="evenodd"/>
<path transform="matrix(1,0,0,-1,0,595.2756)" stroke-width="1.3" stroke-linecap="butt" stroke-miterlimit="10" stroke-linejoin="miter" fill="none" stroke="#202321" d="M308.7614 292.1378H542.3256"/>
<text fill="#202321" xml:space="preserve" transform="matrix(1 0 -0 1 320.7614 330.31779)" font-size="11.5" font-family="Arial" font-weight="bold"><tspan y="-3.68" x="0 8.303 11.500001 15.329501 18.5265 26.197003 32.591005 38.985006 42.182004 49.208505 52.405504 58.155504 64.5495 74.773 81.167 88.1935 95.21999 101.61399 108.00799 111.20499 114.401988 121.42848 127.82248 134.84899 138.04599 144.43999 150.83399">D &#x00b7; Yak&#x0131;n zamandaki ba&#x011f;&#x0131;&#x015f;&#x00e7;&#x0131;</tspan></text>
<text fill="#202321" xml:space="preserve" transform="matrix(1 0 -0 1 320.7614 351.5738)" font-size="10.8" font-family="Arial"><tspan y="-3.456" x="0 7.203601 13.208402 19.213204 25.218005 27.615605 30.618004 36.018007 42.022806 45.025205 50.425207 53.427606 58.827608 61.830007 67.83481 70.83721 73.839618 76.84202 82.84682 88.851619 91.85402 95.45042 98.45282 103.85282 109.85762 112.86002 118.86482 124.86962 130.87442 133.87682 139.88162 145.28162 151.28643 157.29123 160.29363 163.89003">Kendi katk&#x0131;s&#x0131;n&#x0131; tan&#x0131;r ve ona uzan&#x0131;r.</tspan></text>
<path transform="matrix(1,0,0,-1,0,595.2756)" d="M561.3256 158H794.88986V292.13783H561.3256Z" fill="#f2f4ef" fill-rule="evenodd"/>
<path transform="matrix(1,0,0,-1,0,595.2756)" stroke-width="1.3" stroke-linecap="butt" stroke-miterlimit="10" stroke-linejoin="miter" fill="none" stroke="#202321" d="M561.3256 292.1378H794.8898"/>
<text fill="#202321" xml:space="preserve" transform="matrix(1 0 -0 1 573.3256 330.31779)" font-size="11.5" font-family="Arial" font-weight="bold"><tspan y="-3.68" x="0 7.6705009 10.867501 14.697001 17.894001 26.197003 32.591005 38.985006 46.011507">E &#x00b7; Havuz</tspan></text>
<text fill="#202321" xml:space="preserve" transform="matrix(1 0 -0 1 573.3256 365.82978)" font-size="10.8" font-family="Arial"><tspan y="-17.712" x="0 7.203601 13.208402 16.210803 21.610802 24.613202 27.010802 33.015604 36.612005 39.614404 42.616804 48.016805 54.021608 59.421609 65.42641 71.431209 77.436008 83.4408 87.0372 90.039608 93.04201 96.04441 102.04921 105.05161 111.05641 113.45401 119.45881 125.46361 128.466 133.866 136.8684 139.26599 141.66359 147.6684 151.2648 154.2672 159.66719 165.672 171.6768 174.6792 180.684 183.0816 192.078">Katk&#x0131;lar&#x0131; kaydeder; tutulan y&#x0131;llar kan alma</tspan><tspan y="-3.4560004" x="0 6.004801 12.009602 18.014403 23.414402 26.416802 32.4216 35.424 41.428804 44.431203 50.436006 55.836008 58.838407 64.84321 70.84801 76.852809 82.857608 85.86001 91.86481 94.262409 96.66 102.6648 105.0624 108.6588 111.0564 113.453998 115.85159 119.44799">odas&#x0131;n&#x0131;n &#x00fc;st&#x00fc;nde bildirilir.</tspan></text>
<text fill="#606963" xml:space="preserve" transform="matrix(1 0 -0 1 47 461.55158)" font-size="9.3" font-family="Arial"><tspan y="-2.976" x="0 6.2031009 8.788501 14.219702 16.805102 23.008202 25.593602 28.179 32.829004 35.414403 40.064405 45.235204 48.332105 50.917505 54.014406 56.599805 59.185205 63.835206 69.006008 74.1768 77.273708 82.4445 85.02991 90.20071 95.371509 98.46841 100.533008 103.11841 108.28921 113.46001 116.04541 118.11001 121.20691 123.27151 126.36841 128.95381 131.53922 134.12462 140.83922 143.42462 148.85582 151.44123 157.64432 160.22972 162.81513 167.98593 171.08283 173.66823 178.83904 183.48903 186.07444 188.65984 193.83065 198.48064 203.65145 206.74834 209.84523 215.01604 217.60144 220.18685 222.25145 227.42226 232.59307 234.65767 239.82848 244.47847 247.06388 249.64928 252.23468 254.82009 261.5347 264.1201 269.5513 272.1367 278.33979 280.92518 283.51057 288.16056 293.33137 298.50218 303.67298 305.73759 308.32298 312.97297 318.14378 320.72917 325.37916 327.96455 332.61454 335.19993 340.37074 342.95613 345.5415 347.6061 352.2561 354.8415 360.0123 363.1092 365.69459 368.27998 370.86537 377.06846 379.65385 385.08506 387.67045 393.87355 396.45893 399.0443 404.21513 406.8005 408.8651 413.5151 418.6859 421.2713 423.3359 428.5067 431.6036 434.189 438.839 444.0098 446.59519 451.24519 456.416 461.06599 463.13059 468.3014">B &#x003e; A: &#x00e7;&#x0131;kar&#x0131;r, sonra geri getirir / C &#x003e; A: ortak tasarruf iddias&#x0131; / D &#x003e; A: kendi katk&#x0131;s&#x0131;n&#x0131; ister / E &#x003e; A: etiketler ve saklar</tspan></text>
<path transform="matrix(1,0,0,-1,0,595.2756)" stroke-width=".65" stroke-linecap="butt" stroke-miterlimit="10" stroke-linejoin="miter" fill="none" stroke="#202321" d="M47 102H794.8898"/>
<text fill="#202321" xml:space="preserve" transform="matrix(1 0 -0 1 47 518.13558)" font-size="10.5" font-family="Arial" font-style="italic"><tspan y="-3.36" x="0 6.4155 12.253501 15.172502 21.010502 23.341502 29.179503 35.0175 37.9365 43.1865 46.1055 48.4365 50.7675 56.605504 60.102006 63.021005 68.859 71.19 73.521 79.359 81.69 85.1865 87.5175 89.8485 92.179508 95.676 98.595 101.514 107.352 113.189998 119.02799 121.94699 130.6935 135.9435 138.8625 144.1125 147.03151 152.8695 155.2005 161.0385 164.535 170.373 175.623 178.542 184.38 190.218 195.468 198.38701 204.225 207.72151 210.0525 212.3835 221.13 226.968 232.218 235.13701 238.05602 245.05951 250.8975 254.39402 260.23204 266.07005 271.90806 277.15806 279.48905 282.40806 288.24607 290.57707 295.82707 301.66508 303.99607 307.49256 310.41157 316.24958 322.0876 327.3376 330.2566 332.5876 338.4256 344.2636 346.5946 352.43263 357.68263 360.60163 363.52064 369.35865 374.60865 378.10514 383.94316 389.78117 395.03117 400.86918 403.20018 406.11918 414.86567 420.70368 423.03468 428.28468 430.61567 435.86567 441.70368 444.62269 447.5417 452.7917 458.6297 462.1262 467.9642 470.2952 473.2142 479.05223 484.89024 487.80924 493.64726 499.48527 505.32328 511.1613 516.41128 525.1578 530.9958 536.2458">Tutulan y&#x0131;llar bildirilir; ba&#x011f;&#x0131;ms&#x0131;z olarak g&#x00f6;sterilmez. Buradaki hi&#x00e7;bir hak iddias&#x0131; evrensel m&#x00fc;lkiyet kural&#x0131;na d&#x00f6;n&#x00fc;&#x015f;mez.</tspan></text>
<text fill="#8c352f" xml:space="preserve" transform="matrix(1 0 -0 1 749.8898 522.75558)" font-size="14" font-family="Arial" font-weight="bold"><tspan y="-4.48" x="21.6416 29.4256 37.209604">154</tspan></text>
<text fill="#606963" xml:space="preserve" transform="matrix(1 0 -0 1 604.8898 551.7596)" font-size="8.7" font-family="Arial"><tspan y="-2.784" x="103.9218 110.6904 115.0404 119.390399 124.2276 126.6462 131.4834 136.3206 140.67061 142.602 147.43921 152.27642 157.11362 159.53221 163.88222 166.30081 168.7194 171.138 175.488 177.9066 180.3252 185.1624">&#x00d6;yk&#x00fc; ba&#x015f;lang&#x0131;c&#x0131;: s. 98</tspan></text>
</svg>
