<svg xmlns="http://www.w3.org/2000/svg" xmlns:xlink="http://www.w3.org/1999/xlink" xmlns:inkscape="http://www.inkscape.org/namespaces/inkscape" version="1.1" width="841.8898" height="595.2756" viewBox="0 0 841.8898 595.2756">
<path transform="matrix(1,0,0,-1,0,595.2756)" d="M0 0H841.8898V595.2756H0Z" fill="#fffefb" fill-rule="evenodd"/>
<text fill="#606963" xml:space="preserve" transform="matrix(1 0 -0 1 47 37.21997)" font-size="8.5" font-family="Arial" font-weight="bold"><tspan y="-2.72" x="0 5.6695005 11.339001 17.476002 19.839003 25.976004 28.339005 34.476007 40.145509 46.28251 52.41951 58.089014 64.22601">&#x015e;EH&#x0130;R REHBER&#x0130;</tspan></text>
<text fill="#606963" xml:space="preserve" transform="matrix(1 0 -0 1 192 37.21997)" font-size="8.5" font-family="Arial"><tspan y="-2.72" x="533.9227 538.64877 543.37478 545.73776 548.56826 550.9312 556.6007 563.2137 569.3507 571.7137 577.3832 583.0527 587.7787 590.14169 597.22219">54 &#x00b7; SON KEL&#x0130;ME</tspan></text>
<path transform="matrix(1,0,0,-1,0,595.2756)" stroke-width=".9" stroke-linecap="butt" stroke-miterlimit="10" stroke-linejoin="miter" fill="none" stroke="#78867a" d="M47 548.2756H794.8898"/>
<text fill="#202321" xml:space="preserve" transform="matrix(1 0 -0 1 47 94.359989)" font-size="23" font-family="Arial" font-weight="bold"><tspan y="-7.36" x="0 15.3410019 28.129002 42.182004 48.576005 54.970006 67.758 80.546009 93.33401 99.728008 106.122 118.91 131.698 138.092 152.14499 164.93299 178.98598 191.77397 204.56197 210.95597 225.00896 231.40296 245.45595 251.84995 265.90296 272.29698 281.24397 287.63798 300.42597 308.08497 314.47898 323.42597 337.47898 343.873 356.66099 363.055 375.843 384.78999">Yeni say&#x0131; ve babas&#x0131;n&#x0131;n biriktirdikleri</tspan></text>
<text fill="#606963" xml:space="preserve" transform="matrix(1 0 -0 1 47 116.879978)" font-size="11" font-family="Arial"><tspan y="-3.52" x="0 7.942001 14.0580019 17.721 20.779002 23.837002 29.337002 35.453004 41.569005 47.685007 53.185007 56.243005 62.359006 68.475009 71.533008 77.033008 83.149 88.649 91.091 97.207 103.323 109.438999 115.55499 118.61299 124.11299 130.22899 132.67099 135.11299 144.27599 150.39199 152.83399 158.94998 162.61298 165.05498 168.11298 174.22898 180.34497 185.84497 188.90297 195.01897 198.68196 201.12397 204.78696 207.84496 210.90296 217.01895 222.51895 228.01895 230.46096 233.51895 239.63495 245.13495 247.57695 253.07695 256.13496 261.63496 267.75096 270.80897 276.92497 282.42497 287.92497 290.36695 295.86695 298.92497 308.08796 310.52995 316.02995 319.08796 325.20396 328.86695 331.92497 338.04096 344.15696 349.65696 355.77296 361.88896 364.33094 370.44694 376.56294 385.72593 388.78395 394.28395 397.34196 400.39997 404.06297">D&#x00f6;rt &#x00e7;ubuk da saklanan kelimeleri g&#x00f6;sterir; eski e&#x015f;ik ve eksik miktar hesaplanm&#x0131;&#x015f;t&#x0131;r.</tspan></text>
<text fill="#606963" xml:space="preserve" transform="matrix(1 0 -0 1 749.8898 570.1556)" font-size="9" font-family="Arial"><tspan y="-2.88" x="29.98389 34.987894 39.991895">173</tspan></text>
<text fill="#606963" xml:space="preserve" transform="matrix(1 0 -0 1 47 569.49557)" font-size="8.5" font-family="Arial"><tspan y="-2.72" x="0 5.1935 7.5565006 13.226001 18.8955 25.032502 30.702002 35.8955 38.2585 43.928 49.597505 55.267007 60.460508 65.18651 70.85601 76.99301 79.35601 81.71901 84.54951 86.912509 92.58201 98.25151 104.38851 106.75151 112.88851 115.25151 121.38851 127.058017 133.195 138.8645 144.534 150.67099 153.034 155.397 158.22751 160.59052 166.26001 171.9295 176.6555 182.7925 187.5185 189.8815 194.6075 199.3335 204.0595">Z&#x0130;YARET SAATLER&#x0130; &#x00b7; &#x015e;EH&#x0130;R REHBER&#x0130; &#x00b7; EYL&#x00dc;L 2026</tspan></text>
<text fill="#606963" xml:space="preserve" transform="matrix(1 0 -0 1 47 164.25598)" font-size="10.8" font-family="Arial" font-style="italic"><tspan y="-3.456" x="0 5.4 11.4048 16.8048 19.2024 25.207201 31.212002 37.216806 43.221605 46.224004 51.624006 57.628808 60.026407 62.424005 71.4204 77.4252 79.8228 85.8276">saklanan kelimeler</tspan></text>
<text fill="#202321" xml:space="preserve" transform="matrix(1 0 -0 1 47 203.51996)" font-size="11" font-family="Arial" font-weight="bold"><tspan y="-3.52" x="0 7.942001 14.0580019 20.779002 26.895003 29.953003 33.011 39.127004 45.848005 52.569005 55.627004 61.743005 68.464008 74.58 77.638 83.754 93.533 99.648998 106.369998">Baba, son yoklamada</tspan></text>
<path transform="matrix(1,0,0,-1,0,595.2756)" d="M282 389.2756H727.8898V402.2756H282Z" fill="#f2f4ef" fill-rule="evenodd"/>
<path transform="matrix(1,0,0,-1,0,595.2756)" d="M282 389.2756H637.22549V402.2756H282Z" fill="#efe6df" fill-rule="evenodd"/>
<path transform="matrix(1,0,0,-1,0,595.2756)" stroke-width="1" stroke-linecap="butt" stroke-miterlimit="10" stroke-linejoin="miter" fill="none" stroke="#8c352f" d="M282 389.2756H637.22549V402.2756H282Z"/>
<text fill="#8c352f" xml:space="preserve" transform="matrix(1 0 -0 1 737.8898 203.51996)" font-size="11" font-family="Arial" font-weight="bold"><tspan y="-3.52" x="0 6.1160008 12.232001">239</tspan></text>
<text fill="#606963" xml:space="preserve" transform="matrix(1 0 -0 1 282 226.33197)" font-size="10.1" font-family="Arial"><tspan y="-3.232" x="0 6.736701 12.352302 17.402302 19.644503 25.260104 33.673406 39.289007 42.096807 44.904607 47.146806 52.196805 54.439004 60.054605 63.417905 65.6601 71.2757 73.51791 79.13351 81.94131 87.55691 93.17251 98.22251 101.03031 106.64591 110.00921 115.62481 117.86701 123.48261">Saklama fi&#x015f;lerinin g&#x00f6;sterdi&#x011f;i</tspan></text>
<text fill="#202321" xml:space="preserve" transform="matrix(1 0 -0 1 47 265.58888)" font-size="11" font-family="Arial" font-weight="bold"><tspan y="-3.52" x="0 7.337001 13.453001 19.569003 22.627003 25.685004 32.406003 38.522005 45.243005">Eski pano</tspan></text>
<path transform="matrix(1,0,0,-1,0,595.2756)" d="M282 327.2067H727.8898V340.2067H282Z" fill="#f2f4ef" fill-rule="evenodd"/>
<path transform="matrix(1,0,0,-1,0,595.2756)" d="M282 327.2067H638.7118V340.2067H282Z" fill="#efe6df" fill-rule="evenodd"/>
<path transform="matrix(1,0,0,-1,0,595.2756)" stroke-width="1" stroke-linecap="butt" stroke-miterlimit="10" stroke-linejoin="miter" fill="none" stroke="#8c352f" d="M282 327.2067H638.7118V340.2067H282Z"/>
<text fill="#8c352f" xml:space="preserve" transform="matrix(1 0 -0 1 737.8898 265.58888)" font-size="11" font-family="Arial" font-weight="bold"><tspan y="-3.52" x="0 6.1160008 12.232001">240</tspan></text>
<text fill="#606963" xml:space="preserve" transform="matrix(1 0 -0 1 282 288.40089)" font-size="10.1" font-family="Arial"><tspan y="-3.232" x="0 5.6156008 11.231201 16.846802 19.654603 25.270203 30.320202 35.3702 37.6124 40.4202 46.0358 51.6514 53.8936 56.1358 59.4991 62.3069 64.5491 66.791309 72.406909 78.02251 80.83031 86.44591 92.06151 94.86931 99.91931 105.53491 107.777118 110.01932 118.43262 124.04822 126.29042 128.53263 133.58263 136.39043 142.00603 145.36933 148.17713 150.98493">300 eksi belirtilen 60 kelimelik art&#x0131;&#x015f;</tspan></text>
<text fill="#202321" xml:space="preserve" transform="matrix(1 0 -0 1 47 327.65779)" font-size="11" font-family="Arial" font-weight="bold"><tspan y="-3.52" x="0 7.337001 13.453001 20.174002 23.232003 26.290003 33.011 39.127004 45.848005">Yeni pano</tspan></text>
<path transform="matrix(1,0,0,-1,0,595.2756)" d="M282 265.1378H727.8898V278.1378H282Z" fill="#f2f4ef" fill-rule="evenodd"/>
<path transform="matrix(1,0,0,-1,0,595.2756)" d="M282 265.1378H727.8898V278.1378H282Z" fill="#efe6df" fill-rule="evenodd"/>
<path transform="matrix(1,0,0,-1,0,595.2756)" stroke-width="1" stroke-linecap="butt" stroke-miterlimit="10" stroke-linejoin="miter" fill="none" stroke="#8c352f" d="M282 265.1378H727.8898V278.1378H282Z"/>
<text fill="#8c352f" xml:space="preserve" transform="matrix(1 0 -0 1 737.8898 327.65779)" font-size="11" font-family="Arial" font-weight="bold"><tspan y="-3.52" x="0 6.1160008 12.232001">300</tspan></text>
<text fill="#606963" xml:space="preserve" transform="matrix(1 0 -0 1 282 350.4698)" font-size="10.1" font-family="Arial"><tspan y="-3.232" x="0 6.736701 12.352302 17.402302 19.644503 25.260104 33.673406 39.289007 44.339006 46.581205 49.389005 51.631204 56.681203 58.9234 64.539 67.3468 72.396808 78.012409 83.628009 86.43581 92.05141 97.66701 100.47481 106.09041 111.70601 117.32161 125.73491 131.35051 134.15831 139.20832 144.82392 150.43952 153.24732 155.48952 161.10512 166.72072 169.52852 174.57852 180.19412 185.24413">S&#x00f6;ylemesi i&#x00e7;in kad&#x0131;na &#x00f6;deme yap&#x0131;lan say&#x0131;</tspan></text>
<text fill="#202321" xml:space="preserve" transform="matrix(1 0 -0 1 47 389.72669)" font-size="11" font-family="Arial" font-weight="bold"><tspan y="-3.52" x="0 7.942001 14.0580019 20.174002 26.290003 33.011 36.069 42.185 48.906003 55.022005 61.743005 64.801 70.917 77.033 83.148998 86.20699">Hesaplanan eksik</tspan></text>
<path transform="matrix(1,0,0,-1,0,595.2756)" d="M282 203.0689H727.8898V216.0689H282Z" fill="#f2f4ef" fill-rule="evenodd"/>
<path transform="matrix(1,0,0,-1,0,595.2756)" d="M282 203.0689H372.66426V216.0689H282Z" fill="#efe6df" fill-rule="evenodd"/>
<path transform="matrix(1,0,0,-1,0,595.2756)" stroke-width="1" stroke-linecap="butt" stroke-miterlimit="10" stroke-linejoin="miter" fill="none" stroke="#8c352f" d="M282 203.0689H372.66426V216.0689H282Z"/>
<text fill="#8c352f" xml:space="preserve" transform="matrix(1 0 -0 1 737.8898 389.72669)" font-size="11" font-family="Arial" font-weight="bold"><tspan y="-3.52" x="0 6.1160008">61</tspan></text>
<text fill="#606963" xml:space="preserve" transform="matrix(1 0 -0 1 282 412.5387)" font-size="10.1" font-family="Arial"><tspan y="-3.232" x="0 5.6156008 11.231201 16.846802 19.654603 25.270203 30.320202 35.3702 37.6124 40.4202 46.0358 51.6514 57.267004 60.074804 62.882604 68.4982 74.1138 76.9216 81.9716 87.587207 89.82941 92.07161 100.48491 106.10051 108.34271 110.584918 115.63492 118.44272 124.05832 127.421619 130.22942 133.03722 138.08722 140.89502 146.51062 152.12622 157.74182 159.98403">300 eksi 239; 60 kelimelik art&#x0131;&#x015f; de&#x011f;il</tspan></text>
<path transform="matrix(1,0,0,-1,0,595.2756)" stroke-width=".65" stroke-linecap="butt" stroke-miterlimit="10" stroke-linejoin="miter" fill="none" stroke="#202321" d="M47 102H794.8898"/>
<text fill="#202321" xml:space="preserve" transform="matrix(1 0 -0 1 47 518.13558)" font-size="10.5" font-family="Arial" font-style="italic"><tspan y="-3.36" x="0 7.0035006 12.841501 18.679503 21.010502 23.929503 29.767504 35.605504 41.443506 47.281507 53.119508 58.957509 61.876508 67.71451 73.552509 76.471508 82.3095 85.806 88.725 91.644 96.894 99.812999 105.062999 110.90099 114.39749 120.23549 123.15449 126.650989 129.56999 132.489 138.327 147.0735 152.9115 155.8305 161.0805 166.9185 172.7565 175.6755 180.9255 186.7635 192.0135 194.3445 200.1825 208.929 214.767 220.605 226.443 229.362 235.2 241.038 246.87599 249.795 255.045 257.964 263.214 266.133 269.052 274.89 277.80903 280.72804 283.05903 288.30903 290.64 296.47804 299.39704 305.23506 311.07307 316.91108 322.74909 327.99909 330.9181 336.7561 339.6751 345.51313 348.43214 354.27015 359.52015 364.77015 367.10115 372.93916 375.27015 378.18916 384.02717 389.86518 391.87068 397.70869 400.03968 403.53617">Yeni panoda 60 art&#x0131;&#x015f; vard&#x0131;r; ama son yoklamada 239 &#x00e7;&#x0131;kt&#x0131;&#x011f;&#x0131; i&#x00e7;in babas&#x0131;n&#x0131;n eksi&#x011f;i 61'dir.</tspan></text>
<text fill="#8c352f" xml:space="preserve" transform="matrix(1 0 -0 1 749.8898 522.75558)" font-size="14" font-family="Arial" font-weight="bold"><tspan y="-4.48" x="21.6416 29.4256 37.209604">160</tspan></text>
<text fill="#606963" xml:space="preserve" transform="matrix(1 0 -0 1 604.8898 551.7596)" font-size="8.7" font-family="Arial"><tspan y="-2.784" x="99.0833 105.8519 110.2019 114.551898 119.3891 121.8077 126.6449 131.4821 135.8321 137.7635 142.60071 147.43791 152.27512 154.69371 159.04372 161.46231 163.8809 166.2995 170.6495 173.0681 175.4867 180.3239 185.1611">&#x00d6;yk&#x00fc; ba&#x015f;lang&#x0131;c&#x0131;: s. 103</tspan></text>
</svg>
